<svg xmlns="http://www.w3.org/2000/svg" xmlns:xlink="http://www.w3.org/1999/xlink" preserveAspectRatio="xMidYMid" width="22" height="24" viewBox="0 0 22 24">
  <defs>
    <style>
      .cls-1 {
        fill: #cf8aae;
        filter: url(#color-overlay-1);
        fill-rule: evenodd;
      }
    </style>

    <filter id="color-overlay-1" filterUnits="userSpaceOnUse">
      <feFlood flood-color="#c2c2c2"/>
      <feComposite operator="in" in2="SourceGraphic"/>
      <feBlend in2="SourceGraphic" result="solidFill"/>
    </filter>
  </defs>
  <path d="M20.000,24.000 L2.000,24.000 C0.895,24.000 -0.000,23.105 -0.000,22.000 L-0.000,2.000 C-0.000,0.895 0.895,-0.000 2.000,-0.000 L20.000,-0.000 C21.105,-0.000 22.000,0.895 22.000,2.000 L22.000,22.000 C22.000,23.105 21.105,24.000 20.000,24.000 ZM20.000,2.000 L2.000,2.000 L2.000,22.000 L20.000,22.000 L20.000,2.000 ZM7.093,6.657 C8.153,6.233 9.540,6.000 11.000,6.000 C12.460,6.000 13.847,6.233 14.907,6.657 C16.728,7.386 17.000,8.438 17.000,9.000 L17.000,15.000 C17.000,15.562 16.728,16.614 14.907,17.343 C13.847,17.767 12.460,18.000 11.000,18.000 C9.540,18.000 8.153,17.767 7.093,17.343 C5.272,16.614 5.000,15.562 5.000,15.000 L5.000,9.000 C5.000,8.438 5.272,7.386 7.093,6.657 ZM6.000,14.500 C6.000,14.759 6.000,14.910 6.000,15.000 C6.000,16.105 8.238,17.000 11.000,17.000 C13.761,17.000 16.000,16.105 16.000,15.000 C16.000,14.910 16.000,14.759 16.000,14.500 L16.000,13.558 C15.138,14.417 13.247,15.000 11.000,15.000 C8.753,15.000 6.862,14.417 6.000,13.558 L6.000,14.500 ZM6.000,12.062 C6.000,13.028 8.009,14.062 11.000,14.062 C13.991,14.062 16.000,13.028 16.000,12.062 L16.000,10.591 C15.700,10.892 15.270,11.159 14.721,11.378 C13.719,11.779 12.398,12.000 11.000,12.000 C9.602,12.000 8.281,11.779 7.279,11.378 C6.730,11.159 6.300,10.892 6.000,10.591 L6.000,12.062 ZM11.000,11.000 C13.761,11.000 16.000,10.105 16.000,9.000 C16.000,7.895 13.761,7.000 11.000,7.000 C8.238,7.000 6.000,7.895 6.000,9.000 C6.000,10.105 8.238,11.000 11.000,11.000 Z" class="cls-1"/>
</svg>
