<svg xmlns="http://www.w3.org/2000/svg" xmlns:xlink="http://www.w3.org/1999/xlink" preserveAspectRatio="xMidYMid" width="22" height="24" viewBox="0 0 22 24">
  <defs>
    <style>
      .cls-1 {
        fill: #f0a839;
        filter: url(#color-overlay-1);
        fill-rule: evenodd;
      }
    </style>

    <filter id="color-overlay-1" filterUnits="userSpaceOnUse">
      <feFlood flood-color="#c2c2c2"/>
      <feComposite operator="in" in2="SourceGraphic"/>
      <feBlend in2="SourceGraphic" result="solidFill"/>
    </filter>
  </defs>
  <path d="M20.000,24.000 L2.000,24.000 C0.895,24.000 -0.000,23.105 -0.000,22.000 L-0.000,2.000 C-0.000,0.895 0.895,-0.000 2.000,-0.000 L20.000,-0.000 C21.105,-0.000 22.000,0.895 22.000,2.000 L22.000,22.000 C22.000,23.105 21.105,24.000 20.000,24.000 ZM20.000,2.000 L2.000,2.000 L2.000,22.000 L20.000,22.000 L20.000,2.000 ZM10.613,8.033 L13.240,16.020 L11.657,16.020 L10.925,13.757 L8.358,13.757 L7.663,16.020 L6.140,16.020 L8.730,8.033 L10.613,8.033 ZM10.673,12.655 L10.037,10.688 C9.881,10.202 9.750,9.657 9.630,9.194 L9.606,9.194 C9.486,9.657 9.366,10.214 9.222,10.688 L8.598,12.655 L10.673,12.655 ZM15.055,7.843 C15.558,7.843 15.870,8.187 15.882,8.637 C15.882,9.076 15.558,9.420 15.043,9.420 C14.551,9.420 14.227,9.076 14.227,8.637 C14.227,8.187 14.563,7.843 15.055,7.843 ZM15.798,16.020 L14.311,16.020 L14.311,10.249 L15.798,10.249 L15.798,16.020 Z" class="cls-1"/>
</svg>
