<svg xmlns="http://www.w3.org/2000/svg" xmlns:xlink="http://www.w3.org/1999/xlink" preserveAspectRatio="xMidYMid" width="22" height="24" viewBox="0 0 22 24">
  <defs>
    <style>
      .cls-1 {
        fill: #91a0b0;
        filter: url(#color-overlay-1);
        fill-rule: evenodd;
      }
    </style>

    <filter id="color-overlay-1" filterUnits="userSpaceOnUse">
      <feFlood flood-color="#c2c2c2"/>
      <feComposite operator="in" in2="SourceGraphic"/>
      <feBlend in2="SourceGraphic" result="solidFill"/>
    </filter>
  </defs>
  <path d="M20.000,24.000 L2.000,24.000 C0.895,24.000 -0.000,23.105 -0.000,22.000 L-0.000,2.000 C-0.000,0.895 0.895,-0.000 2.000,-0.000 L20.000,-0.000 C21.105,-0.000 22.000,0.895 22.000,2.000 L22.000,22.000 C22.000,23.105 21.105,24.000 20.000,24.000 ZM20.000,2.000 L2.000,2.000 C2.000,2.000 2.006,9.842 2.006,12.104 C3.207,11.384 4.545,11.000 6.031,11.000 C10.406,11.000 11.531,14.031 17.000,14.031 C17.994,14.031 18.930,13.900 20.003,13.736 C20.003,12.802 20.000,2.000 20.000,2.000 ZM12.000,7.000 C12.000,5.343 13.343,4.000 15.000,4.000 C16.657,4.000 18.000,5.343 18.000,7.000 C18.000,8.657 16.657,10.000 15.000,10.000 C13.343,10.000 12.000,8.657 12.000,7.000 Z" class="cls-1"/>
</svg>
