<svg xmlns="http://www.w3.org/2000/svg" xmlns:xlink="http://www.w3.org/1999/xlink" preserveAspectRatio="xMidYMid" width="22" height="24" viewBox="0 0 22 24">
  <defs>
    <style>
      .cls-1 {
        fill: #f7886e;
        filter: url(#color-overlay-1);
        fill-rule: evenodd;
      }
    </style>

    <filter id="color-overlay-1" filterUnits="userSpaceOnUse">
      <feFlood flood-color="#c2c2c2"/>
      <feComposite operator="in" in2="SourceGraphic"/>
      <feBlend in2="SourceGraphic" result="solidFill"/>
    </filter>
  </defs>
  <path d="M20.000,24.000 L2.000,24.000 C0.895,24.000 -0.000,23.105 -0.000,22.000 L-0.000,2.000 C-0.000,0.895 0.895,-0.000 2.000,-0.000 L20.000,-0.000 C21.105,-0.000 22.000,0.895 22.000,2.000 L22.000,22.000 C22.000,23.105 21.105,24.000 20.000,24.000 ZM20.000,2.000 L2.000,2.000 L2.000,22.000 L20.000,22.000 L20.000,2.000 ZM6.000,9.000 C7.105,9.000 8.000,9.895 8.000,11.000 C8.000,12.105 7.105,13.000 6.000,13.000 C5.133,13.000 5.012,13.000 5.000,13.000 L5.000,15.000 L4.000,15.000 L4.000,9.000 L5.000,9.000 C5.000,9.000 4.895,9.000 6.000,9.000 ZM5.000,12.000 C5.000,12.000 5.448,12.000 6.000,12.000 C6.552,12.000 7.000,11.552 7.000,11.000 C7.000,10.448 6.552,10.000 6.000,10.000 C5.448,10.000 5.000,10.000 5.000,10.000 L5.000,12.000 ZM11.000,9.000 C12.105,9.000 13.000,9.895 13.000,11.000 L13.000,13.000 C13.000,14.105 12.105,15.000 11.000,15.000 C9.895,15.000 10.000,15.000 10.000,15.000 L9.000,15.000 L9.000,9.000 L10.000,9.000 C10.000,9.000 9.895,9.000 11.000,9.000 ZM10.000,10.000 L10.000,14.000 C10.000,14.000 10.448,14.000 11.000,14.000 C11.552,14.000 12.000,13.552 12.000,13.000 L12.000,11.000 C12.000,10.448 11.552,10.000 11.000,10.000 C10.448,10.000 10.000,10.000 10.000,10.000 ZM18.000,10.000 L15.000,10.000 L15.000,11.000 L17.000,11.000 L17.000,12.000 L15.000,12.000 L15.000,15.000 L14.000,15.000 L14.000,9.000 L18.000,9.000 L18.000,10.000 Z" class="cls-1"/>
</svg>
