<svg xmlns="http://www.w3.org/2000/svg" xmlns:xlink="http://www.w3.org/1999/xlink" preserveAspectRatio="xMidYMid" width="22" height="24" viewBox="0 0 22 24">
  <defs>
    <style>
      .cls-1 {
        fill: #79a1df;
        filter: url(#color-overlay-1);
        fill-rule: evenodd;
      }
    </style>

    <filter id="color-overlay-1" filterUnits="userSpaceOnUse">
      <feFlood flood-color="#c2c2c2"/>
      <feComposite operator="in" in2="SourceGraphic"/>
      <feBlend in2="SourceGraphic" result="solidFill"/>
    </filter>
  </defs>
  <path d="M20.000,24.000 L2.000,24.000 C0.895,24.000 -0.000,23.105 -0.000,22.000 L-0.000,2.000 C-0.000,0.895 0.895,-0.000 2.000,-0.000 L20.000,-0.000 C21.105,-0.000 22.000,0.895 22.000,2.000 L22.000,22.000 C22.000,23.105 21.105,24.000 20.000,24.000 ZM20.000,2.000 L2.000,2.000 L2.000,22.000 L20.000,22.000 L20.000,2.000 ZM10.704,9.661 C11.192,10.050 11.509,10.673 11.509,11.414 C11.509,12.167 11.265,12.790 10.802,13.214 C10.205,13.790 9.266,14.061 8.206,14.061 C7.925,14.061 7.669,14.049 7.474,14.014 L7.474,17.002 L5.987,17.002 L5.987,9.179 C6.524,9.085 7.267,9.014 8.279,9.014 C9.376,9.014 10.180,9.238 10.704,9.661 ZM7.474,12.873 C7.657,12.920 7.901,12.932 8.206,12.932 C9.327,12.932 10.010,12.402 10.010,11.473 C10.010,10.591 9.376,10.120 8.340,10.120 C7.925,10.120 7.633,10.156 7.474,10.191 L7.474,12.873 ZM14.194,16.084 C14.852,16.084 15.145,15.825 15.145,15.449 C15.145,15.061 14.901,14.861 14.170,14.614 C13.012,14.226 12.524,13.614 12.536,12.943 C12.536,11.932 13.402,11.144 14.779,11.144 C15.437,11.144 16.010,11.308 16.351,11.485 L16.059,12.508 C15.803,12.367 15.328,12.179 14.803,12.179 C14.267,12.179 13.975,12.426 13.975,12.779 C13.975,13.143 14.255,13.320 15.011,13.579 C16.083,13.955 16.583,14.484 16.595,15.331 C16.595,16.367 15.754,17.131 14.182,17.131 C13.463,17.131 12.817,16.955 12.378,16.719 L12.670,15.672 C13.012,15.872 13.658,16.084 14.194,16.084 Z" class="cls-1"/>
</svg>
