<svg xmlns="http://www.w3.org/2000/svg" xmlns:xlink="http://www.w3.org/1999/xlink" preserveAspectRatio="xMidYMid" width="22" height="24" viewBox="0 0 22 24">
  <defs>
    <style>
      .cls-1 {
        fill: #91a0b0;
        filter: url(#color-overlay-1);
        fill-rule: evenodd;
      }
    </style>

    <filter id="color-overlay-1" filterUnits="userSpaceOnUse">
      <feFlood flood-color="#c2c2c2"/>
      <feComposite operator="in" in2="SourceGraphic"/>
      <feBlend in2="SourceGraphic" result="solidFill"/>
    </filter>
  </defs>
  <path d="M20.000,24.000 L2.000,24.000 C0.895,24.000 -0.000,23.105 -0.000,22.000 L-0.000,2.000 C-0.000,0.895 0.895,-0.000 2.000,-0.000 L20.000,-0.000 C21.105,-0.000 22.000,0.895 22.000,2.000 L22.000,22.000 C22.000,23.105 21.105,24.000 20.000,24.000 ZM4.000,2.000 L2.000,2.000 L2.000,4.000 L4.000,4.000 L4.000,2.000 ZM4.000,5.000 L2.000,5.000 L2.000,7.000 L4.000,7.000 L4.000,5.000 ZM4.000,8.000 L2.000,8.000 L2.000,10.000 L4.000,10.000 L4.000,8.000 ZM4.000,11.000 L2.000,11.000 L2.000,13.000 L4.000,13.000 L4.000,11.000 ZM4.000,14.000 L2.000,14.000 L2.000,16.000 L4.000,16.000 L4.000,14.000 ZM4.000,17.000 L2.000,17.000 L2.000,19.000 L4.000,19.000 L4.000,17.000 ZM4.000,20.000 L2.000,20.000 L2.000,22.000 L4.000,22.000 L4.000,20.000 ZM17.000,2.000 L5.000,2.000 L5.000,22.000 L17.000,22.000 L17.000,2.000 ZM20.000,2.000 L18.000,2.000 L18.000,4.000 L20.000,4.000 L20.000,2.000 ZM20.000,5.000 L18.000,5.000 L18.000,7.000 L20.000,7.000 L20.000,5.000 ZM20.000,8.000 L18.000,8.000 L18.000,10.000 L20.000,10.000 L20.000,8.000 ZM20.000,11.000 L18.000,11.000 L18.000,13.000 L20.000,13.000 L20.000,11.000 ZM20.000,14.000 L18.000,14.000 L18.000,16.000 L20.000,16.000 L20.000,14.000 ZM20.000,17.000 L18.000,17.000 L18.000,19.000 L20.000,19.000 L20.000,17.000 ZM20.000,20.000 L18.000,20.000 L18.000,22.000 L20.000,22.000 L20.000,20.000 ZM10.000,8.000 C11.000,8.000 14.000,10.000 14.000,11.000 C14.000,12.000 11.000,14.000 10.000,14.000 C9.000,14.000 9.004,13.000 9.004,13.000 L9.004,9.000 C9.004,9.000 9.000,8.000 10.000,8.000 Z" class="cls-1"/>
</svg>
