<svg xmlns="http://www.w3.org/2000/svg" xmlns:xlink="http://www.w3.org/1999/xlink" preserveAspectRatio="xMidYMid" width="22" height="24" viewBox="0 0 22 24">
  <defs>
    <style>
      .cls-1 {
        fill: #f1c238;
        filter: url(#color-overlay-1);
        fill-rule: evenodd;
      }
    </style>

    <filter id="color-overlay-1" filterUnits="userSpaceOnUse">
      <feFlood flood-color="#c2c2c2"/>
      <feComposite operator="in" in2="SourceGraphic"/>
      <feBlend in2="SourceGraphic" result="solidFill"/>
    </filter>
  </defs>
  <path d="M20.000,24.000 L2.000,24.000 C0.895,24.000 -0.000,23.105 -0.000,22.000 L-0.000,2.000 C-0.000,0.895 0.895,-0.000 2.000,-0.000 L20.000,-0.000 C21.105,-0.000 22.000,0.895 22.000,2.000 L22.000,22.000 C22.000,23.105 21.105,24.000 20.000,24.000 ZM20.000,2.000 L2.000,2.000 L2.000,7.000 L4.000,7.000 L4.000,5.000 L6.000,5.000 L6.000,7.000 L8.000,7.000 L8.000,5.000 L10.000,5.000 L10.000,7.000 L12.000,7.000 L12.000,5.000 L14.000,5.000 L14.000,7.000 L16.000,7.000 L16.000,5.000 L18.000,5.000 L18.000,7.000 L20.000,7.000 L20.000,2.000 ZM20.000,10.000 L18.000,10.000 L18.000,8.000 L16.000,8.000 L16.000,10.000 L14.000,10.000 L14.000,8.000 L12.000,8.000 L12.000,10.000 L10.000,10.000 L10.000,8.000 L8.000,8.000 L8.000,10.000 L6.000,10.000 L6.000,8.000 L4.000,8.000 L4.000,10.000 L2.000,10.000 L2.000,22.000 L20.000,22.000 L20.000,10.000 Z" class="cls-1"/>
</svg>
